<?xml version="1.0" encoding="utf-8"?>
<!-- Svg Vector Icons : http://www.onlinewebfonts.com/icon -->
<!DOCTYPE svg PUBLIC "-//W3C//DTD SVG 1.1//EN" "http://www.w3.org/Graphics/SVG/1.1/DTD/svg11.dtd">
<svg version="1.1" xmlns="http://www.w3.org/2000/svg" xmlns:xlink="http://www.w3.org/1999/xlink" x="0px" y="0px" viewBox="0 0 1000 1000" enable-background="new 0 0 1000 1000" xml:space="preserve">
<metadata> Svg Vector Icons : http://www.onlinewebfonts.com/icon </metadata>
<g><g><g><path d="M772.9,95.7C699.5,12.2,560.1-13.2,425.9,32.5C284,80.8,190.6,193.2,182,325.9l44.9,2.9C235.7,192.3,343,108.2,440.4,75.1c117.2-39.9,237.3-19.7,298.9,50.3c68.5,78,61.9,211.7-18.8,376.6c-38.2,53.2-64,113.8-88.9,172.3C570.3,818.2,517.4,942.7,303,945c-28.9-18.4-36.4-42.1-44.4-67.1c-10.4-32.4-23.2-72.5-88.6-72.5c-0.6,0-1.2,0-1.8,0l0.5,45c33.8-0.8,37.1,10.1,47.1,41.2c9.2,28.7,21.7,67.9,69.9,95.4l5.2,3h6c249.3,0,313.8-151.5,376.1-298.1c24.2-56.8,49.2-115.6,85.1-165.2l2-3.3C875.3,288.8,830.6,161.3,772.9,95.7z"/><path d="M406.6,573.3c-78.7-56.2-118.5,96.8-95.6,127.4c89.9,104.9,202.3-52.5,187.4-149.9c-22.5-104.9-89-133.9-66.5-238.9c34.4-91.4,136.9-74.2,173.3-64.7c-58.4-32.5-287.7-145-189.2,153.7C432.6,451.5,485.3,629.5,406.6,573.3z"/><path d="M618.3,251c0,0-4.9-1.7-13.1-3.8c8.3,4.6,13.1,7.6,13.1,7.6V251z"/></g></g><g></g><g></g><g></g><g></g><g></g><g></g><g></g><g></g><g></g><g></g><g></g><g></g><g></g><g></g><g></g></g>
</svg>